<?xml version="1.0" encoding="utf-8"?>
<!-- Generator: Adobe Illustrator 26.3.1, SVG Export Plug-In . SVG Version: 6.00 Build 0)  -->
<svg version="1.1" id="Layer_1" xmlns="http://www.w3.org/2000/svg" xmlns:xlink="http://www.w3.org/1999/xlink" x="0px" y="0px"
	 viewBox="0 0 24 24" style="enable-background:new 0 0 24 24;" xml:space="preserve">
<style type="text/css">
	.st0{fill:#31C5D1;}
</style>
<path class="st0" d="M16.1,13c0.75,0,1.41-0.41,1.75-1.03l3.58-6.49C21.8,4.82,21.32,4,20.56,4H5.76L4.82,2H1.55v2h2l3.6,7.59
	L5.8,14.03C5.07,15.37,6.03,17,7.55,17h12v-2h-12l1.1-2H16.1z M6.71,6h12.15l-2.76,5H9.08L6.71,6z M7.55,18c-1.1,0-1.99,0.9-1.99,2
	s0.89,2,1.99,2s2-0.9,2-2S8.65,18,7.55,18z M17.55,18c-1.1,0-1.99,0.9-1.99,2s0.89,2,1.99,2s2-0.9,2-2S18.65,18,17.55,18z"/>
</svg>
